<svg viewBox="0 0 85 325" xmlns="http://www.w3.org/2000/svg" xml:space="preserve" style="fill-rule:evenodd;clip-rule:evenodd;stroke-linejoin:round;stroke-miterlimit:2"><path d="M75 10.007v28.51c0 5.636-1.589 10.179-4.766 13.63-3.177 3.45-7.642 5.175-13.393 5.175-4.945 0-9.251-1.538-12.918-4.615-3.666-3.076-5.499-7.807-5.499-14.19V18.59H11.639v-8.583H75ZM56.798 48.653c4.659 0 7.822-1.725 9.489-5.176.892-1.898 1.337-4.5 1.337-7.807V18.59H45.67v17.08c0 3.853.82 6.98 2.459 9.381 1.639 2.401 4.529 3.602 8.669 3.602ZM57.833 67.286v7.376h-7.979c1.553.603 3.443 2.084 5.672 4.442 2.228 2.358 3.343 5.075 3.343 8.152 0 .144-.015.388-.044.733a96.83 96.83 0 0 1-.172 1.769h-8.195c.086-.46.144-.884.172-1.273.029-.388.044-.812.044-1.272 0-3.911-1.258-6.915-3.775-9.015-2.516-2.099-5.413-3.148-8.691-3.148H11.639v-7.764h46.194ZM58.869 115.723c0 3.278-.77 6.456-2.308 9.532-1.538 3.077-3.53 5.421-5.974 7.031-2.329 1.553-5.046 2.588-8.152 3.106-2.128.46-5.521.69-10.179.69v-33.859c-4.687.144-8.447 1.251-11.279 3.321-2.832 2.07-4.248 5.277-4.248 9.619 0 4.054 1.337 7.289 4.011 9.704a13.515 13.515 0 0 0 5.391 2.933v7.635c-1.696-.202-3.587-.87-5.671-2.006-2.085-1.136-3.789-2.408-5.112-3.817-2.3-2.358-3.853-5.277-4.658-8.756-.46-1.869-.69-3.983-.69-6.34 0-5.751 2.092-10.625 6.276-14.622 4.184-3.997 10.042-5.996 17.576-5.996 7.419 0 13.443 2.013 18.072 6.039 4.63 4.026 6.945 9.288 6.945 15.786Zm-20.445 12.379c3.364-.316 6.053-1.049 8.066-2.2 3.738-2.127 5.607-5.679 5.607-10.653 0-3.566-1.287-6.556-3.86-8.972-2.574-2.415-5.845-3.695-9.813-3.838v25.663ZM57.833 149.409l-37.611 12.336 37.611 12.897v8.497l-46.194-17.426v-8.281l46.194-17.037v9.014ZM57.618 189.781v7.893H11.639v-7.893h45.979Zm17.382 0v7.893h-8.799v-7.893H75ZM58.869 228.643c0 3.278-.77 6.455-2.308 9.532-1.538 3.077-3.53 5.42-5.974 7.031-2.329 1.552-5.046 2.588-8.152 3.105-2.128.46-5.521.69-10.179.69v-33.858c-4.687.143-8.447 1.25-11.279 3.321-2.832 2.07-4.248 5.276-4.248 9.618 0 4.055 1.337 7.29 4.011 9.705a13.528 13.528 0 0 0 5.391 2.933v7.634c-1.696-.201-3.587-.869-5.671-2.005-2.085-1.136-3.789-2.409-5.112-3.817-2.3-2.358-3.853-5.277-4.658-8.756-.46-1.869-.69-3.983-.69-6.341 0-5.751 2.092-10.625 6.276-14.621 4.184-3.997 10.042-5.996 17.576-5.996 7.419 0 13.443 2.013 18.072 6.039 4.63 4.025 6.945 9.287 6.945 15.786Zm-20.445 12.379c3.364-.316 6.053-1.05 8.066-2.2 3.738-2.128 5.607-5.679 5.607-10.653 0-3.566-1.287-6.557-3.86-8.972-2.574-2.415-5.845-3.695-9.813-3.839v25.664ZM57.833 262.113l-36.403 8.886 36.403 9.014v8.713l-36.187 9.058 36.187 9.446v7.763l-46.194-13.414v-8.065l35.756-9.403-35.756-9.101v-8.066l46.194-13.328v8.497Z" style="fill-rule:nonzero"/></svg>
